<?xml version="1.0" encoding="UTF-8" standalone="no"?>
<!-- Created with Inkscape (http://www.inkscape.org/) -->

<svg
   width="512"
   height="512"
   viewBox="0 0 512 512"
   version="1.1"
   id="svg1"
   xml:space="preserve"
   xmlns="http://www.w3.org/2000/svg"
   xmlns:svg="http://www.w3.org/2000/svg"><defs
     id="defs1" /><g
     id="layer1"><g
       id="g1"
       transform="matrix(8.7449395,0,0,8.7449395,38.012562,25.129799)"><path
         fill="#ffcc4d"
         d="M 35.734,19.929 C 35.375,16.66 35,15 34,13 34,13 37,4 35,0.3 34.326,-0.946 27.596,1.988 25,4 25,4 21,3.002 18,3.002 15,3.002 11,4 11,4 8.404,1.988 1.674,-0.946 1,0.3 -1,4 2,13 2,13 1,15 0.625,16.66 0.266,19.929 -0.129,23.513 0.657,26.37 1,27 c 0.39,0.716 2.367,3.025 5,5 4,3 10,4 12,4 2,0 8,-1 12,-4 2.633,-1.975 4.61,-4.284 5,-5 0.343,-0.63 1.129,-3.487 0.734,-7.071 z"
         id="path1" /><path
         fill="#e75a70"
         d="m 18,19.5 c 3,0 3,0.5 3,1.5 0,1 -1.5,3 -3,3 -1.5,0 -3,-2 -3,-3 0,-1 -10e-4,-1.5 3,-1.5 z"
         id="path2" /><path
         fill="#f18f26"
         d="M 2,3 C 2.447,1.658 7.64,4 8.64,5 8.64,5 4,8 3,11 3,11 1,6 2,3 Z m 32,0 c -0.447,-1.342 -5.64,1 -6.64,2 0,0 4.64,3 5.64,6 0,0 2,-5 1,-8 z"
         id="path3" /><path
         fill="#ffcc4d"
         d="M 4.934,5.603 C 4.934,4.189 11,7 10,8 9,9 8,9.603 7,10.603 c -1,1 -2.066,-4 -2.066,-5 z m 26.132,0 C 31.066,4.189 25,7 26,8 c 1,1 2,1.603 3,2.603 1,1 2.066,-4 2.066,-5 z"
         id="path4" /><path
         fill="#fee7b8"
         d="M 0.701,25 C 0.553,25 0.407,24.935 0.308,24.81 0.137,24.593 0.174,24.279 0.391,24.108 c 0.162,-0.127 4.02,-3.12 10.648,-2.605 0.275,0.02 0.481,0.261 0.46,0.536 -0.021,0.275 -0.257,0.501 -0.537,0.46 C 4.729,22.025 1.047,24.865 1.011,24.894 0.918,24.965 0.809,25 0.701,25 Z M 9.569,20.337 C 9.52,20.337 9.469,20.33 9.42,20.315 4.63,18.818 0.683,19.968 0.643,19.979 0.378,20.06 0.1,19.909 0.02,19.644 -0.059,19.379 0.091,19.101 0.355,19.022 0.528,18.97 4.641,17.775 9.717,19.36 c 0.264,0.083 0.411,0.363 0.328,0.627 -0.066,0.213 -0.263,0.35 -0.476,0.35 z M 35.299,25 c 0.148,0 0.294,-0.065 0.393,-0.19 0.171,-0.217 0.134,-0.531 -0.083,-0.702 -0.162,-0.127 -4.02,-3.12 -10.648,-2.605 -0.275,0.02 -0.481,0.261 -0.46,0.536 0.021,0.275 0.257,0.501 0.537,0.46 6.233,-0.474 9.915,2.366 9.951,2.395 0.093,0.071 0.202,0.106 0.31,0.106 z m -8.868,-4.663 c 0.049,0 0.1,-0.007 0.149,-0.022 4.79,-1.497 8.737,-0.347 8.777,-0.336 0.265,0.081 0.543,-0.07 0.623,-0.335 0.079,-0.265 -0.071,-0.543 -0.335,-0.622 -0.173,-0.052 -4.286,-1.247 -9.362,0.338 -0.264,0.083 -0.411,0.363 -0.328,0.627 0.065,0.213 0.263,0.35 0.476,0.35 z"
         id="path5" /><path
         fill="#292f33"
         d="M 25.327,25.622 C 25.175,25.49 24.958,25.463 24.776,25.553 l -4,2 C 18.905,28.488 14.049,28.5 14,28.5 c -0.276,0 -0.5,0.224 -0.5,0.5 0,0.185 0.101,0.347 0.25,0.433 v 0.001 h 10e-4 v 10e-4 c 0.071,0.04 0.153,0.063 0.24,0.065 h 7.008 c 2.658,0 4.089,-2.186 4.475,-3.342 0.064,-0.192 0.006,-0.403 -0.147,-0.536 z"
         id="path6" /><g
         fill="#292f33"
         id="g7"><ellipse
           cx="12"
           cy="14.5"
           rx="2"
           ry="3.5"
           id="ellipse6" /><ellipse
           cx="24"
           cy="14.5"
           rx="2"
           ry="3.5"
           id="ellipse7" /><path
           d="m 21,12 c -0.256,0 -0.512,-0.098 -0.707,-0.293 -0.391,-0.391 -0.391,-1.023 0,-1.414 C 24.537,6.049 28.819,6 29,6 29.553,6 30,6.448 30,7 30,7.551 29.555,7.998 29.005,8 28.94,8.001 25.318,8.096 21.707,11.707 21.512,11.902 21.256,12 21,12 Z m -6,0 C 14.744,12 14.488,11.902 14.293,11.707 10.667,8.082 7.031,8 6.995,8 6.444,7.994 6,7.545 6.003,6.995 6.006,6.444 6.45,6 7,6 c 0.18,0 4.463,0.049 8.707,4.293 0.391,0.391 0.391,1.023 0,1.414 C 15.512,11.902 15.256,12 15,12 Z"
           id="path7" /></g></g><g
       transform="matrix(5.5806926,0,0,5.6587489,-228.27198,-107.06273)"
       id="layer1-6"><circle
         r="0"
         style="fill:none;stroke:#000000;stroke-width:12;stroke-miterlimit:4;stroke-dasharray:none;stroke-opacity:1"
         cy="92"
         cx="75"
         id="path3713" /><circle
         r="30"
         cy="53.902557"
         cx="75.921303"
         id="path834"
         style="fill:none;fill-opacity:1;stroke:#3050ff;stroke-width:10;stroke-miterlimit:4;stroke-dasharray:none;stroke-opacity:1" /><rect
         transform="rotate(-46.234709)"
         ry="1.8669105e-13"
         y="122.08995"
         x="3.7063529"
         height="39.963303"
         width="18.846331"
         id="rect912"
         style="opacity:1;fill:#3050ff;fill-opacity:1;stroke:none;stroke-width:8;stroke-miterlimit:4;stroke-dasharray:none;stroke-opacity:1" /></g></g></svg>
